<?xml version="1.0" encoding="UTF-8"?>
<!-- Created by QCTools 1.2.1 -->
<ffprobe:ffprobe xmlns:xsi='http://www.w3.org/2001/XMLSchema-instance' xmlns:ffprobe='http://www.ffmpeg.org/schema/ffprobe' xsi:schemaLocation='http://www.ffmpeg.org/schema/ffprobe ffprobe.xsd'>
    <program_version version="4.4.1" copyright="Copyright (c) 2007-2023 the FFmpeg developers" build_date="Feb 14 2022" build_time="03:18:52" compiler_ident="not available" configuration="not available"/>

    <library_versions>
        <library_version name="libavutil" major="56" minor="70" micro="100" version="3688036" ident="Lavu56.70.100"/>
        <library_version name="libavcodec" major="58" minor="134" micro="100" version="3835492" ident="Lavc58.134.100"/>
        <library_version name="libavformat" major="58" minor="76" micro="100" version="3820644" ident="Lavf58.76.100"/>
        <library_version name="libavfilter" major="7" minor="110" micro="100" version="487012" ident="Lavfi7.110.100"/>
        <library_version name="libswscale" major="5" minor="9" micro="100" version="330084" ident="SwS5.9.100"/>
    </library_versions>
    <frames>
        <frame media_type="audio" stream_index="0" key_frame="1" pkt_pts="0" pkt_pts_time="0.0000000" pkt_duration_time="0.0213328" pkt_pos="612" pkt_size="6144">
            <tag key="lavfi.astats.1.Peak_level" value="-53.124731"/>
            <tag key="lavfi.astats.1.RMS_level" value="-62.968710"/>
            <tag key="lavfi.astats.1.RMS_peak" value="-62.968710"/>
            <tag key="lavfi.astats.1.RMS_trough" value="-62.968710"/>
            <tag key="lavfi.astats.1.Crest_factor" value="3.105982"/>
        </frame>
        <frame media_type="audio" stream_index="0" key_frame="1" pkt_pts="1024" pkt_pts_time="0.0213328" pkt_duration_time="0.0120205" pkt_pos="6764" pkt_size="3462">
            <tag key="lavfi.astats.1.Peak_level" value="-52.349588"/>
            <tag key="lavfi.astats.1.RMS_level" value="-63.272094"/>
            <tag key="lavfi.astats.1.RMS_peak" value="-63.272094"/>
            <tag key="lavfi.astats.1.RMS_trough" value="-63.272094"/>
            <tag key="lavfi.astats.1.Crest_factor" value="3.516619"/>
        </frame>
        <frame media_type="audio" stream_index="0" key_frame="1" pkt_pts="1601" pkt_pts_time="0.0333534" pkt_duration_time="0.0213328" pkt_pos="10234" pkt_size="6144">
            <tag key="lavfi.astats.1.Peak_level" value="-52.714182"/>
            <tag key="lavfi.astats.1.RMS_level" value="-62.722238"/>
            <tag key="lavfi.astats.1.RMS_peak" value="-62.722238"/>
            <tag key="lavfi.astats.1.RMS_trough" value="-62.722238"/>
            <tag key="lavfi.astats.1.Crest_factor" value="3.165212"/>
        </frame>
        <frame media_type="audio" stream_index="0" key_frame="1" pkt_pts="2625" pkt_pts_time="0.0546862" pkt_duration_time="0.0120414" pkt_pos="16386" pkt_size="3468">
            <tag key="lavfi.astats.1.Peak_level" value="-54.100988"/>
            <tag key="lavfi.astats.1.RMS_level" value="-64.603998"/>
            <tag key="lavfi.astats.1.RMS_peak" value="-64.603998"/>
            <tag key="lavfi.astats.1.RMS_trough" value="-64.603998"/>
            <tag key="lavfi.astats.1.Crest_factor" value="3.350816"/>
        </frame>
        <frame media_type="video" stream_index="1" key_frame="1" pkt_pts="1" pkt_pts_time="0.0333667" pkt_duration_time="0.0333667" pkt_pos="822210" pkt_size="388225" width="720" height="486" pix_fmt="yuv422p10le" pict_type="I">
            <tag key="lavfi.signalstats.YMIN" value="4.000000"/>
            <tag key="lavfi.signalstats.YLOW" value="131.000000"/>
            <tag key="lavfi.signalstats.YAVG" value="309.752000"/>
            <tag key="lavfi.signalstats.YHIGH" value="608.000000"/>
            <tag key="lavfi.signalstats.YMAX" value="921.000000"/>
            <tag key="lavfi.signalstats.UMIN" value="428.000000"/>
            <tag key="lavfi.signalstats.ULOW" value="496.000000"/>
            <tag key="lavfi.signalstats.UAVG" value="504.980000"/>
            <tag key="lavfi.signalstats.UHIGH" value="512.000000"/>
            <tag key="lavfi.signalstats.UMAX" value="537.000000"/>
            <tag key="lavfi.signalstats.VMIN" value="476.000000"/>
            <tag key="lavfi.signalstats.VLOW" value="499.000000"/>
            <tag key="lavfi.signalstats.VAVG" value="507.769000"/>
            <tag key="lavfi.signalstats.VHIGH" value="514.000000"/>
            <tag key="lavfi.signalstats.VMAX" value="558.000000"/>
            <tag key="lavfi.signalstats.VDIF" value="3.415590"/>
            <tag key="lavfi.signalstats.UDIF" value="4.966360"/>
            <tag key="lavfi.signalstats.YDIF" value="12.167600"/>
            <tag key="lavfi.signalstats.SATMIN" value="0.000000"/>
            <tag key="lavfi.signalstats.SATLOW" value="2.000000"/>
            <tag key="lavfi.signalstats.SATAVG" value="9.680000"/>
            <tag key="lavfi.signalstats.SATHIGH" value="21.000000"/>
            <tag key="lavfi.signalstats.SATMAX" value="88.000000"/>
            <tag key="lavfi.signalstats.HUEMED" value="71.000000"/>
            <tag key="lavfi.signalstats.HUEAVG" value="90.678400"/>
            <tag key="lavfi.signalstats.TOUT" value="0.022391"/>
            <tag key="lavfi.signalstats.VREP" value="0.000000"/>
            <tag key="lavfi.signalstats.BRNG" value="0.015378"/>
            <tag key="lavfi.signalstats.VBITDEPTH" value="10.000000"/>
            <tag key="lavfi.signalstats.UBITDEPTH" value="10.000000"/>
            <tag key="lavfi.signalstats.YBITDEPTH" value="10.000000"/>
            <tag key="lavfi.psnr.mse.v" value="19.506275"/>
            <tag key="lavfi.psnr.mse.u" value="43.334053"/>
            <tag key="lavfi.psnr.mse.y" value="3734.214111"/>
            <tag key="lavfi.psnr.psnr.v" value="47.295769"/>
            <tag key="lavfi.psnr.psnr.u" value="43.829220"/>
            <tag key="lavfi.psnr.psnr.y" value="24.475521"/>
            <tag key="lavfi.psnr.mse_avg" value="1882.817139"/>
            <tag key="lavfi.psnr.psnr_avg" value="27.449430"/>
        </frame>
        <frame media_type="video" stream_index="1" key_frame="1" pkt_pts="2" pkt_pts_time="0.0667334" pkt_duration_time="0.0333667" pkt_pos="1210444" pkt_size="388343" width="720" height="486" pix_fmt="yuv422p10le" pict_type="I">
            <tag key="lavfi.signalstats.YMIN" value="4.000000"/>
            <tag key="lavfi.signalstats.YLOW" value="132.000000"/>
            <tag key="lavfi.signalstats.YAVG" value="310.883000"/>
            <tag key="lavfi.signalstats.YHIGH" value="610.000000"/>
            <tag key="lavfi.signalstats.YMAX" value="928.000000"/>
            <tag key="lavfi.signalstats.UMIN" value="424.000000"/>
            <tag key="lavfi.signalstats.ULOW" value="496.000000"/>
            <tag key="lavfi.signalstats.UAVG" value="504.836000"/>
            <tag key="lavfi.signalstats.UHIGH" value="512.000000"/>
            <tag key="lavfi.signalstats.UMAX" value="551.000000"/>
            <tag key="lavfi.signalstats.VMIN" value="477.000000"/>
            <tag key="lavfi.signalstats.VLOW" value="498.000000"/>
            <tag key="lavfi.signalstats.VAVG" value="507.624000"/>
            <tag key="lavfi.signalstats.VHIGH" value="514.000000"/>
            <tag key="lavfi.signalstats.VMAX" value="540.000000"/>
            <tag key="lavfi.signalstats.VDIF" value="3.370860"/>
            <tag key="lavfi.signalstats.UDIF" value="4.951130"/>
            <tag key="lavfi.signalstats.YDIF" value="13.242900"/>
            <tag key="lavfi.signalstats.SATMIN" value="0.000000"/>
            <tag key="lavfi.signalstats.SATLOW" value="2.000000"/>
            <tag key="lavfi.signalstats.SATAVG" value="9.850450"/>
            <tag key="lavfi.signalstats.SATHIGH" value="21.000000"/>
            <tag key="lavfi.signalstats.SATMAX" value="91.000000"/>
            <tag key="lavfi.signalstats.HUEMED" value="71.000000"/>
            <tag key="lavfi.signalstats.HUEAVG" value="88.357500"/>
            <tag key="lavfi.signalstats.TOUT" value="0.022031"/>
            <tag key="lavfi.signalstats.VREP" value="0.000000"/>
            <tag key="lavfi.signalstats.BRNG" value="0.015366"/>
            <tag key="lavfi.signalstats.VBITDEPTH" value="10.000000"/>
            <tag key="lavfi.signalstats.UBITDEPTH" value="10.000000"/>
            <tag key="lavfi.signalstats.YBITDEPTH" value="10.000000"/>
            <tag key="lavfi.psnr.mse.v" value="19.369410"/>
            <tag key="lavfi.psnr.mse.u" value="44.975857"/>
            <tag key="lavfi.psnr.mse.y" value="3934.833984"/>
            <tag key="lavfi.psnr.psnr.v" value="47.326347"/>
            <tag key="lavfi.psnr.psnr.u" value="43.667717"/>
            <tag key="lavfi.psnr.psnr.y" value="24.248249"/>
            <tag key="lavfi.psnr.mse_avg" value="1983.503296"/>
            <tag key="lavfi.psnr.psnr_avg" value="27.223183"/>
        </frame>
         <frame media_type="video" stream_index="1" key_frame="1" pkt_pts="3" pkt_pts_time="0.1001001" pkt_duration_time="0.0333667" pkt_pos="1598796" pkt_size="386802" width="720" height="486" pix_fmt="yuv422p10le" pict_type="I">
            <tag key="lavfi.signalstats.YMIN" value="4.000000"/>
            <tag key="lavfi.signalstats.YLOW" value="132.000000"/>
            <tag key="lavfi.signalstats.YAVG" value="310.724000"/>
            <tag key="lavfi.signalstats.YHIGH" value="611.000000"/>
            <tag key="lavfi.signalstats.YMAX" value="935.000000"/>
            <tag key="lavfi.signalstats.UMIN" value="423.000000"/>
            <tag key="lavfi.signalstats.ULOW" value="496.000000"/>
            <tag key="lavfi.signalstats.UAVG" value="504.780000"/>
            <tag key="lavfi.signalstats.UHIGH" value="512.000000"/>
            <tag key="lavfi.signalstats.UMAX" value="538.000000"/>
            <tag key="lavfi.signalstats.VMIN" value="474.000000"/>
            <tag key="lavfi.signalstats.VLOW" value="498.000000"/>
            <tag key="lavfi.signalstats.VAVG" value="507.526000"/>
            <tag key="lavfi.signalstats.VHIGH" value="514.000000"/>
            <tag key="lavfi.signalstats.VMAX" value="544.000000"/>
            <tag key="lavfi.signalstats.VDIF" value="3.349090"/>
            <tag key="lavfi.signalstats.UDIF" value="4.901580"/>
            <tag key="lavfi.signalstats.YDIF" value="15.341900"/>
            <tag key="lavfi.signalstats.SATMIN" value="0.000000"/>
            <tag key="lavfi.signalstats.SATLOW" value="2.000000"/>
            <tag key="lavfi.signalstats.SATAVG" value="9.958840"/>
            <tag key="lavfi.signalstats.SATHIGH" value="22.000000"/>
            <tag key="lavfi.signalstats.SATMAX" value="93.000000"/>
            <tag key="lavfi.signalstats.HUEMED" value="71.000000"/>
            <tag key="lavfi.signalstats.HUEAVG" value="88.606900"/>
            <tag key="lavfi.signalstats.TOUT" value="0.020968"/>
            <tag key="lavfi.signalstats.VREP" value="0.000000"/>
            <tag key="lavfi.signalstats.BRNG" value="0.015412"/>
            <tag key="lavfi.signalstats.VBITDEPTH" value="10.000000"/>
            <tag key="lavfi.signalstats.UBITDEPTH" value="10.000000"/>
            <tag key="lavfi.signalstats.YBITDEPTH" value="10.000000"/>
            <tag key="lavfi.psnr.mse.v" value="19.296719"/>
            <tag key="lavfi.psnr.mse.u" value="43.267353"/>
            <tag key="lavfi.psnr.mse.y" value="3825.373291"/>
            <tag key="lavfi.psnr.psnr.v" value="47.342678"/>
            <tag key="lavfi.psnr.psnr.u" value="43.835911"/>
            <tag key="lavfi.psnr.psnr.y" value="24.370775"/>
            <tag key="lavfi.psnr.mse_avg" value="1928.327759"/>
            <tag key="lavfi.psnr.psnr_avg" value="27.345705"/>
        </frame>
        <streams>
        <stream index="0" codec_name="pcm_s24le" codec_long_name="PCM signed 24-bit little-endian" codec_type="audio" codec_time_base="1/48000" codec_tag_string="[1][0][0][0]" codec_tag="0x0001" bits_per_raw_sample="24" sample_fmt="s32" sample_rate="48000" channels="2" channel_layout="unknown" bits_per_sample="24" r_frame_rate="0/0" avg_frame_rate="0/0" time_base="6/288007" start_pts="0" start_time="0.000000">
            <disposition default="0" dub="0" original="0" comment="0" lyrics="0" karaoke="0" forced="0" hearing_impaired="0" visual_impaired="0" clean_effects="0" attached_pic="0" timed_thumbnails="0"/>
        </stream>
        <stream index="1" codec_name="ffv1" codec_long_name="FFmpeg video codec #1" codec_type="video" codec_time_base="100/2997" codec_tag_string="FFV1" codec_tag="0x31564646" bits_per_raw_sample="10" width="720" height="486" coded_width="720" coded_height="486" has_b_frames="0" sample_aspect_ratio="0:1" display_aspect_ratio="0:1" pix_fmt="yuv422p10le" level="-99" field_order="unknown" refs="1" r_frame_rate="2997/100" avg_frame_rate="2997/100" time_base="100/2997" start_pts="0" start_time="0.000000">
            <disposition default="0" dub="0" original="0" comment="0" lyrics="0" karaoke="0" forced="0" hearing_impaired="0" visual_impaired="0" clean_effects="0" attached_pic="0" timed_thumbnails="0"/>
        </stream>
    </streams>
    <format filename="C:\Users\nfo6331\Videos\vlc-record-2023-10-05-11h16m25s-test_NONEVIDEOSETTING_QTUNCOMPRESSED-p - Copy.mkv-.avi" nb_streams="2" nb_programs="0" format_name="avi" format_long_name="AVI (Audio Video Interleaved)" start_time="0.000000" duration="19.853187" size="237978278" bit_rate="95895244" probe_score="100">
        <tag key="software" value="VLC Media Player - 3.0.18 Vetinari"/>
    </format>

</ffprobe:ffprobe>